<svg version="1.1" xmlns="http://www.w3.org/2000/svg" xmlns:xlink="http://www.w3.org/1999/xlink" viewBox="0 0 256 256">
	<radialGradient id="gradient" cx="128.1052" cy="127.8948" r="147.9833" fx="102.5095" fy="102.3191" gradientUnits="userSpaceOnUse">
		<stop offset="0.1046" style="stop-color: #F17644" />
		<stop offset="0.1102" style="stop-color: #F17543" />
		<stop offset="0.2874" style="stop-color: #EE5F2B" />
		<stop offset="0.4737" style="stop-color: #EC4F1A" />
		<stop offset="0.6749" style="stop-color: #EA450F" />
		<stop offset="0.9161" style="stop-color: #EA420C" />
	</radialGradient>
	<g fill="url(#gradient)">
		<path d="M49.8,79c0,0,49.2-35,90.3-37.7c0,0,29.5-3.8,49.2,5.7c18.8,7.8,21,10.9,38.4,32.2c0,0,3.4-8.2,2.7-25c-0.7-16.8-2.7-48.3-50.9-53.7c0,0-15.8-0.3-23.3-0.3c-7.5,0-22.3,0.2-46.5,14.7C81.6,31.6,62.2,52,49.8,79z" />
		<path d="M207.2,176c0,0-49.2,35-90.3,37.7c0,0-29.5,3.8-49.2-5.7c-18.8-7.8-21-10.9-38.4-32.2c0,0-3.4,8.2-2.7,25s2.7,48.3,50.9,53.7c0,0,15.8,0.3,23.3,0.3s22.3-0.2,46.5-14.7C175.4,223.4,194.8,203,207.2,176z" />
		<path d="M79,205.5c0,0-35-49.2-37.7-90.3c0,0-3.8-29.5,5.7-49.2c7.8-18.8,10.9-21,32.2-38.4c0,0-8.2-3.4-25-2.7S6,27.5,0.5,75.8c0,0-0.3,15.8-0.3,23.3s0.2,22.3,14.7,46.5C31.7,173.7,52.1,193.1,79,205.5z" />
		<path d="M176.1,48.2c0,0,35,49.2,37.7,90.3c0,0,3.8,29.5-5.7,49.2c-7.8,18.8-10.9,21-32.2,38.4c0,0,8.2,3.4,25,2.7c16.8-0.7,48.3-2.7,53.7-50.9c0,0,0.3-15.8,0.3-23.3c0-7.5-0.2-22.3-14.7-46.5C223.4,79.9,203,60.6,176.1,48.2z" />
		<circle cx="128" cy="128" r="55.1" />
	</g>
</svg>
